<svg width="104" height="56" viewBox="0 0 104 56" fill="none" xmlns="http://www.w3.org/2000/svg">
<path d="M21.125 12H0V43.4576H4.33333V30.1695H16.7917L20.0417 26.9153V25.2881H4.33333V16.6102H21.125V12Z" fill="#E0E1E3"/>
<path fill-rule="evenodd" clip-rule="evenodd" d="M42.25 33.4236C42.25 39.2647 37.3391 43.9999 31.2812 43.9999C25.2234 43.9999 20.3125 39.2647 20.3125 33.4236C20.3125 27.5825 25.2234 22.8474 31.2812 22.8474C37.3391 22.8474 42.25 27.5825 42.25 33.4236ZM37.9875 33.4236C37.9875 37.054 34.9885 40.0033 31.2812 40.0033C27.574 40.0033 24.575 37.054 24.575 33.4236C24.575 29.7933 27.574 26.844 31.2812 26.844C34.9885 26.844 37.9875 29.7933 37.9875 33.4236Z" fill="#E0E1E3"/>
<path fill-rule="evenodd" clip-rule="evenodd" d="M103.938 33.4236C103.938 39.2647 99.0266 43.9999 92.9688 43.9999C86.9109 43.9999 82 39.2647 82 33.4236C82 27.5825 86.9109 22.8474 92.9688 22.8474C99.0266 22.8474 103.938 27.5825 103.938 33.4236ZM99.675 33.4236C99.675 37.054 96.676 40.0033 92.9688 40.0033C89.2615 40.0033 86.2625 37.054 86.2625 33.4236C86.2625 29.7933 89.2615 26.844 92.9688 26.844C96.676 26.844 99.675 29.7933 99.675 33.4236Z" fill="#E0E1E3"/>
<path d="M50 23.3899H45.5V40.4747L48.4792 43.4577H63.375V23.3899H59V39.1187H50V23.3899Z" fill="#E0E1E3"/>
<path d="M72.5847 23.3899H67.9805V43.4577H72.5847V30.712L78.8138 27.1865H82.0638V23.3899H77.1888L72.5847 26.1018V23.3899Z" fill="#E0E1E3"/>
</svg>
