<svg width="62" height="64" viewBox="0 0 62 64" fill="none" xmlns="http://www.w3.org/2000/svg">
<path d="M61.6 31.4667C61.6 49.1398 52.0173 64 34.9333 64C17.8493 64 0 55.0064 0 37.3333C0 19.6602 9.58266 0 26.6667 0C43.7507 0 61.6 13.7936 61.6 31.4667Z" fill="#B21414"/>
<path d="M46.7071 32.7071C47.0976 32.3166 47.0976 31.6834 46.7071 31.2929L40.3431 24.9289C39.9526 24.5384 39.3195 24.5384 38.9289 24.9289C38.5384 25.3195 38.5384 25.9526 38.9289 26.3431L44.5858 32L38.9289 37.6569C38.5384 38.0474 38.5384 38.6805 38.9289 39.0711C39.3195 39.4616 39.9526 39.4616 40.3431 39.0711L46.7071 32.7071ZM16 33H46V31H16V33Z" fill="#E0E1E3"/>
</svg>
