<svg width="61" height="56" viewBox="0 0 61 56" fill="none" xmlns="http://www.w3.org/2000/svg">
<path d="M60.6316 21.8947C60.6316 37.475 50.5276 56 34.9474 56C19.3671 56 0 47.1592 0 31.5789C0 15.9987 11.7882 0 27.3684 0C42.9487 0 60.6316 6.31449 60.6316 21.8947Z" fill="#B21414"/>
<path d="M22 19C22 17.3431 23.3431 16 25 16H35C36.6569 16 38 17.3431 38 19V28.5V38C38 39.6569 36.6569 41 35 41H25C23.3431 41 22 39.6569 22 38V19Z" fill="#E0E1E3" stroke="#E0E1E3" stroke-width="2"/>
<circle cx="30" cy="35.5" r="1.5" fill="#B21414" stroke="#B21414"/>
</svg>
