<svg width="132" height="121" viewBox="0 0 132 121" fill="none" xmlns="http://www.w3.org/2000/svg">
<path d="M80.0234 59.9659C81.3568 60.7357 81.3568 62.6602 80.0234 63.43L63.4126 73.0203C62.0792 73.7901 60.4126 72.8278 60.4126 71.2882L60.4126 52.1076C60.4126 50.568 62.0792 49.6058 63.4126 50.3756L80.0234 59.9659Z" fill="#B21414"/>
<path d="M131 70.1539C131 87.9049 122.07 100.189 108.615 108.086C95.1117 116.011 77.0568 119.5 59 119.5C41.2012 119.5 26.7284 110.77 16.6755 97.5169C6.61104 84.2487 1 66.4665 1 48.5C1 30.8239 11.2003 18.9912 26.0336 11.5219C40.9048 4.0335 60.3346 1 78.4103 1C96.2101 1 109.311 9.26737 118 22.0188C126.714 34.8068 131 52.1322 131 70.1539Z" stroke="#B21414" stroke-width="2"/>
</svg>
