<svg width="133" height="129" viewBox="0 0 133 129" fill="none" xmlns="http://www.w3.org/2000/svg">
<path d="M81.0234 59.9659C82.3568 60.7357 82.3568 62.6602 81.0234 63.43L64.4126 73.0203C63.0792 73.7901 61.4126 72.8278 61.4126 71.2882L61.4126 52.1076C61.4126 50.568 63.0792 49.6058 64.4126 50.3756L81.0234 59.9659Z" fill="#B21414"/>
<path d="M132 70.1539C132 88.1733 127.716 102.392 119.079 112.098C110.461 121.783 97.369 127.128 79.4103 127.128C61.5219 127.128 41.8877 119.145 26.7203 106.632C11.5472 94.114 1 77.1982 1 59.4359C1 41.7128 11.505 27.127 26.6427 16.926C41.7828 6.72334 61.4392 1 79.4103 1C97.2101 1 110.311 9.26737 119 22.0188C127.714 34.8068 132 52.1322 132 70.1539Z" stroke="#B21414" stroke-width="2"/>
</svg>
