<svg width="134" height="132" viewBox="0 0 134 132" fill="none" xmlns="http://www.w3.org/2000/svg">
<path d="M82.0234 62.9649C83.3568 63.7347 83.3568 65.6592 82.0234 66.429L65.4126 76.0193C64.0792 76.7891 62.4126 75.8268 62.4126 74.2872L62.4126 55.1067C62.4126 53.5671 64.0792 52.6048 65.4126 53.3746L82.0234 62.9649Z" fill="#B21414"/>
<path d="M133 73.1534C133 91.1023 127.195 106.057 117.758 116.156C108.33 126.245 95.2358 131.538 80.5049 130.132C65.6308 128.713 43.6909 121.458 26.614 109.67C9.50788 97.8614 -2.38592 81.7633 1.97453 62.658C6.42244 43.1694 17.9971 25.7606 32.4695 14.596C46.9462 3.42808 64.204 -1.41502 80.09 3.94702C96.2515 9.40201 109.47 17.7668 118.646 29.206C127.814 40.6346 133 55.1965 133 73.1534Z" stroke="#B21414" stroke-width="2"/>
</svg>
