<svg width="447" height="430" viewBox="0 0 447 430" fill="none" xmlns="http://www.w3.org/2000/svg">
<path d="M278.98 205.327C280.314 206.097 280.314 208.021 278.98 208.791L209.098 249.138C207.765 249.907 206.098 248.945 206.098 247.406L206.098 166.712C206.098 165.173 207.765 164.21 209.098 164.98L278.98 205.327Z" fill="#B21414"/>
<path d="M445.35 235.437C445.35 296.246 430.896 344.612 401.392 377.767C371.906 410.902 327.25 429 266.502 429C205.824 429 139.417 401.952 88.1742 359.676C36.9255 317.395 1 260.019 1 199.468C1 138.955 36.8834 89.3617 88.0967 54.85C139.312 20.3367 205.742 1 266.502 1C327.091 1 371.756 29.1936 401.313 72.5686C430.894 115.98 445.35 174.626 445.35 235.437Z" fill="#B21414" fill-opacity="0.03" stroke="#B21414" stroke-width="2"/>
</svg>
